# xmcd
#
# Track frame offsets: 
#        150
#        23087
#        38137
#
# Disc length: 812 seconds
#
# Revision: 10
# Processed by: cddbd v1.5.2PL0 Copyright (c) Steve Scherf et al.
# Submitted via: ExactAudioCopy v1.0b3
#
DISCID=19032a03
DTITLE=The Boom - 島唄
DYEAR=1993
DGENRE=Blues
TTITLE0=島唄(オリジナル・ヴァージョン)
TTITLE1=100万つぶの涙
TTITLE2=島唄(オリジナル・カラオケ)
EXTD=
EXTT0=
EXTT1=
EXTT2=
PLAYORDER=
